<?xml version="1.0" standalone="no"?>
<!DOCTYPE svg PUBLIC "-//W3C//DTD SVG 20010904//EN"
 "http://www.w3.org/TR/2001/REC-SVG-20010904/DTD/svg10.dtd">
<svg version="1.0" xmlns="http://www.w3.org/2000/svg"
 width="500.000000pt" height="500.000000pt" viewBox="0 0 500.000000 500.000000"
 preserveAspectRatio="xMidYMid meet">
<metadata>
Created by potrace 1.14, written by Peter Selinger 2001-2017
</metadata>
<g transform="translate(0.000000,500.000000) scale(0.100000,-0.100000)"
fill="#000000" stroke="none">
<path d="M184 3026 c3 -32 6 -126 6 -207 0 -140 1 -149 19 -149 20 0 24 11 37
105 28 208 96 265 315 265 l90 0 -3 -617 c-3 -562 -5 -621 -20 -649 -19 -35
-52 -50 -129 -60 -36 -5 -49 -11 -49 -23 0 -14 30 -16 295 -16 266 0 295 1
295 16 0 12 -13 18 -53 22 -81 10 -116 26 -135 61 -15 28 -17 87 -20 650 l-3
619 118 -5 c163 -6 212 -30 254 -124 14 -32 49 -198 49 -236 0 -5 9 -8 20 -8
19 0 20 7 20 133 0 74 3 167 6 208 l7 74 -563 0 -562 0 6 -59z"/>
<path d="M2668 3083 c-205 -3 -248 -6 -248 -17 0 -8 14 -17 30 -20 17 -3 43
-9 59 -12 16 -3 37 -14 47 -26 18 -19 19 -50 19 -630 l0 -610 -27 -23 c-16
-14 -47 -26 -77 -30 -39 -5 -51 -11 -51 -24 0 -16 26 -17 343 -16 317 1 348 3
420 23 184 51 329 166 406 323 65 133 76 188 76 379 0 187 -11 247 -71 368
-51 105 -135 187 -244 240 -143 70 -241 80 -682 75z m469 -61 c163 -51 255
-154 305 -340 26 -98 36 -366 19 -496 -33 -246 -128 -388 -300 -447 -49 -16
-98 -23 -187 -27 -147 -5 -177 5 -194 68 -7 26 -10 232 -8 624 l3 584 24 26
c13 14 33 27 45 30 48 11 233 -3 293 -22z"/>
<path d="M1725 2718 c-237 -45 -367 -258 -351 -578 9 -179 40 -269 128 -365
124 -136 351 -172 532 -85 106 50 189 160 222 293 22 88 25 304 5 387 -32 133
-114 251 -210 303 -89 49 -215 66 -326 45z m159 -39 c22 -6 56 -28 80 -52 85
-86 116 -203 116 -442 0 -241 -37 -377 -124 -451 -83 -72 -186 -70 -267 4 -88
79 -122 203 -122 447 0 177 16 275 58 360 55 114 152 164 259 134z"/>
<path d="M4231 2720 c-155 -33 -268 -138 -324 -299 -25 -72 -35 -296 -17 -399
25 -152 113 -276 236 -334 129 -60 279 -60 410 1 118 55 209 184 234 332 18
107 8 317 -19 401 -43 135 -133 231 -256 277 -64 24 -199 35 -264 21z m185
-55 c117 -58 174 -216 174 -480 0 -264 -57 -422 -172 -479 -67 -33 -112 -33
-178 2 -117 61 -170 208 -170 477 0 267 56 421 172 479 65 33 110 33 174 1z"/>
</g>
</svg>
